<?xml version="1.0" encoding="UTF-8"?><svg id="Layer_2" xmlns="http://www.w3.org/2000/svg" viewBox="0 0 460.86 622.98"><defs><style>.cls-1{fill:#fff;}</style></defs><g id="Layer_1-2"><g><path class="cls-1" d="M270.18,386.49c-40.04,35.45-80.09,70.89-120.37,106.55,4.57-.35,8.81-.89,13.07-.94,4.97-.06,9.96,.11,14.91,.53,6.16,.53,11.31,3.31,15.67,7.73,6.13,6.21,10.98,13.12,11.58,22.12,.62,9.33-3.13,16.86-10.51,22.51-1.04,.79-2.6,.9-3.92,1.32,.45-1.14,.72-2.39,1.36-3.42,8.43-13.51,4.31-30.75-9.24-37.8-2.08-1.08-4.56-1.77-6.9-1.9-8.78-.49-17.4,.75-25.84,3.17-1.41,.4-2.73,1.12-4.25,1.76,11.67,10.81,23.03,21.32,34.73,32.16-3.46,3.18-6.66,6.19-9.98,9.06-.38,.33-1.62,.14-2.12-.25-1.9-1.49-3.72-3.11-5.48-4.78-32.68-30.87-65.35-61.75-98.02-92.63-3.77-3.57-7.64-7.04-11.31-10.71-2.05-2.05-1.99-2.38-.05-4.42,1.76-1.86,3.71-3.53,5.54-5.32,1.25-1.22,2.33-1.07,3.57,.07,5.95,5.49,11.98,10.91,17.92,16.41,6.2,5.74,12.33,11.55,18.5,17.32,.14,.13,.37,.18,1.11,.51,2.42-2.66,5-5.42,7.43-8.3,.29-.34-.01-1.61-.45-2.06-2.99-3.08-6.05-6.09-9.18-9.03-1.05-.99-1.44-1.99-1.43-3.42,.57-113.07,1.11-226.14,1.64-339.21,.02-4.76,0-9.52,0-14.74,3.18,.25,5.77,.43,8.35,.7,.31,.03,.71,.58,.79,.96,.14,.59,.05,1.24,.05,1.86,0,27.3,.02,54.6-.04,81.89,0,1.91,.46,3.21,1.97,4.41,3.34,2.66,6.53,5.51,9.79,8.28l.82-.28c.3-47.46,.59-94.91,.89-142.78,2.95,0,5.83-.02,8.7,0,1.69,.02,1.46,1.32,1.47,2.4,.15,12.89,.38,25.77,.41,38.66,.08,29.17,.05,58.34,.07,87.5,0,.9,0,1.8,0,2.86,.35-.09,.64-.09,.8-.23,3.38-3.08,6.81-6.1,10.06-9.31,.72-.71,1.1-2.08,1.11-3.15,.31-22.51,.59-45.03,.77-67.54,.24-30.21,.36-60.41,.59-90.62,.04-5.06-.46-4.36,4.51-4.44,1.72-.03,3.43,0,5.42,0,0,1.21,0,2.08,0,2.96,.08,52.59,.17,105.17,.2,157.76,0,1.81,.5,3.13,1.76,4.38,2.59,2.58,5.07,5.26,8.02,8.35,.17-1.39,.36-2.22,.37-3.05,.15-9.91,.35-19.81,.4-29.72,.17-29.93,.28-59.86,.42-89.79,0-1.11,.03-2.22,.06-3.32,.12-3.84,.41-4.13,4.35-4.27,5.2-.19,5.63-.03,5.77,5.13,.27,9.9,.29,19.81,.33,29.72,.13,34.29,.2,68.59,.33,102.88,0,2.68,.24,5.37,.38,8.18,.56-.08,.97,0,1.19-.18,3.73-2.87,7.42-5.78,11.15-8.65,1.09-.84,1.41-1.85,1.4-3.21-.04-28.54-.03-57.09-.03-85.63v-2.5c2.94,0,5.76-.05,8.57,.02,1.52,.04,1.36,1.25,1.37,2.3,.08,12.96,.22,25.91,.26,38.87,.23,73.23,.44,146.46,.65,219.7,0,.87,0,1.74,0,3.26,1.55-1.52,2.72-2.55,3.76-3.7,21.44-23.66,42.88-47.32,64.26-71.05,.72-.8,1.06-2.22,1.06-3.35,.13-51.75,.18-103.51,.29-155.26,.02-8.59,.26-17.18,.41-25.77,.01-.75,.14-1.5,.21-2.31,2.79,0,5.45-.02,8.11,0,1.23,.01,1.36,.85,1.36,1.86-.02,4.43-.02,8.87,0,13.3,.08,22.31,.23,44.62,.18,66.92,0,4.29,1.43,7.47,4.86,9.93,2.41,1.73,4.7,3.63,7.64,5.91,.36-48.33,.72-96.04,1.08-143.69h10.5V178.05c4.48-3.71,8.63-6.82,11.32-11.35,.72-1.21,.78-2.93,.8-4.42,.21-13.79,.4-27.57,.48-41.36,.18-31.94,.27-63.88,.45-95.82,.04-6.65,.31-13.3,.49-19.95,.02-.68,.11-1.36,.18-2.12h10.18c.13,1.29,.37,2.63,.37,3.96-.12,24.11-.31,48.22-.42,72.33-.13,28.06-.19,56.12-.35,84.18,0,1.68,.47,2.85,1.69,3.96,2.36,2.14,4.59,4.41,6.9,6.61,.53,.5,1.13,.92,2.13,1.73,0-1.4,0-2.27,0-3.14,.14-30.9,.26-61.8,.44-92.7,.06-10.25,.26-20.51,.42-30.76,.05-2.96,.46-3.38,3.38-3.45,1.59-.04,3.19,.01,4.77,.1,1.52,.09,2.27,.76,2.27,2.49-.01,6.03,.24,12.05,.22,18.08-.12,37.07-.29,74.13-.44,111.2,0,2.42,.02,4.85,.08,7.27,.02,.72,.17,1.43,.31,2.45,.68-.52,1.1-.76,1.4-1.1,3.92-4.49,7.86-8.95,11.67-13.53,.57-.69,.71-1.9,.71-2.87,.04-25.08,.04-50.16,.04-75.24,0-.82,0-1.64,0-2.7,3.49-.16,6.85-.32,10.44-.48v76.29c28.59-7.75,56.57-16.52,85.58-23.93-.42,2.37-.6,4.06-1.01,5.69-6.05,23.87-12.14,47.72-18.18,71.59-1.03,4.09-1.85,8.23-2.81,12.33-.93,3.95-2.98,6.95-6.2,9.68-13.21,11.19-26.15,22.7-39.16,34.12-5.26,4.61-10.45,9.31-15.72,13.91-1.41,1.23-2.03,2.59-2.03,4.49,0,44.96-.05,89.93-.14,134.89-.01,4.97-.37,9.94-.54,14.92-.07,2.23-1.15,3.88-2.65,5.44-10.53,10.92-21.02,21.88-31.52,32.83-2.78,2.9-5.49,5.87-8.27,8.76-2.26,2.36-2.6,5.17-2.13,8.62,1.61-1.83,3.01-3.41,4.4-4.99,4.33-4.9,8.93-9.48,14.56-12.91,6.42-3.92,13.22-5.36,20.68-3.53,6.4,1.57,12.75,3.21,18.62,6.26,8.09,4.2,12.5,10.88,13.15,19.99,.7,9.88-1.48,19.4-3.52,28.96-1.96,9.19-3.9,18.41-5.31,27.7-1.93,12.75-.55,25.13,5.73,36.69,1.02,1.88,1.83,3.88,2.68,5.85,.28,.66,.36,1.4,.54,2.1l-.61,.46c-1.03-1-2.21-1.87-3.05-3.01-5.88-7.96-11.79-15.91-16.05-24.92-.73-1.55-1.53-3.07-2.76-4.57,0,.69,0,1.38,0,2.08-.14,14.13-.26,28.26-.43,42.39-.04,2.99-.12,3.08-3.2,3.11-12.4,.12-24.79,.22-37.19,.24-6.99,.01-13.99-.01-20.98-.27-5.78-.22-5.04,.09-5.17-5.17-.09-3.81-.04-7.62,.06-11.43,.08-2.88,.4-3.2,3.3-3.25,9.49-.16,18.97-.25,28.46-.39,2.42-.03,4.85-.13,7.27-.18,1.51-.03,2.36-.75,2.37-2.27,.02-6.78,0-13.56,0-20.64-2.13-.21-4.24-.52-6.36-.6-2.84-.11-5.68-.09-8.52-.05-3.04,.04-3.85,.72-4.02,3.76-.17,3.18-.09,6.37-.13,9.56-.07,4.59-.88,5.53-5.44,5.62-5.46,.11-10.92,.03-16.55,.03v-41.6c4.37-1.1,64.07-.69,67.61,.61,1.31-4.43,2.61-8.85,3.91-13.27,2.61-8.83,3.63-17.87,3.76-27.06,.08-5.82-1.27-11.28-3.5-16.52-3.04-7.12-11.61-11.31-19.66-9.94-6.75,1.15-12.51,4.1-17.43,8.94-11.13,10.96-16.31,24.48-17.24,39.79-.29,4.82-.05,9.66-.05,14.36-4.55,0-8.74,.03-12.94-.02-1.68-.02-2.01-1.3-1.94-2.63,.12-2.56,.31-5.11,.54-7.67,.6-6.7-.07-13.31-1.97-19.73-1.45-4.89-4.76-8.81-9.06-11.25-4.32-2.45-9.23-2.52-13.56,.56-8.24,5.87-10.27,14.73-4.83,23.26,2.64,4.15,6.37,7.61,9.63,11.36,1.12,1.29,2.3,2.52,3.56,3.89-1.76,1.44-3.29,.7-4.67,.15-7.28-2.89-13.41-7.42-18.53-13.32-.72-.83-1.27-1.81-1.87-2.74-3.28-5.08-3.69-10.38-1.57-16.06,3.84-10.29,11.5-15.38,22.08-16.55,2.53-.28,5.11-.2,7.67-.16,3.13,.05,5.93,1.19,8.54,2.88,1.08,.7,2.23,1.28,4.06,2.31,.21-3.34,.44-6.11,.55-8.88,.09-2.4-.82-4.39-2.49-6.16-8.96-9.45-17.88-18.94-26.8-28.43-4.84-5.15-9.69-10.28-14.43-15.53-.74-.82-1.24-2.17-1.25-3.27-.12-18.35-.15-36.71-.21-55.06,0-1.08-.11-2.16-.17-3.24l-.59-.26Zm.02-90.85l-.78-.39c-1.29,1.46-2.58,2.92-3.88,4.37-12.85,14.44-25.7,28.87-38.54,43.31-34.05,38.31-68.1,76.63-102.15,114.93-4.28,4.81-8.58,9.61-12.92,14.37-1.24,1.36-1.18,2.52,.07,3.75,1.47,1.46,2.94,2.93,4.39,4.42,1.13,1.16,2.13,1.16,3.33-.02,2.32-2.29,4.8-4.4,7.11-6.7,31.22-31.08,62.45-62.16,93.63-93.29,16.33-16.3,32.58-32.67,48.82-49.05,.71-.72,1.46-1.83,1.46-2.76,.05-10.04-.04-20.09-.13-30.13,0-.94-.26-1.88-.4-2.82Zm.14,48.07c-48.34,48.38-96.54,96.64-145.21,145.35,1.85,1.69,4.08,3.64,6.19,5.71,1.16,1.14,2.03,1.01,3.14-.03,4.06-3.77,8.12-7.54,12.28-11.2,25.45-22.45,50.95-44.84,76.38-67.31,15.41-13.62,30.73-27.35,46.05-41.08,.77-.69,1.52-1.91,1.53-2.88,.05-8.73-.06-17.46-.14-26.18,0-.81-.14-1.62-.21-2.38Zm173.32-172.64l-.46-.26c-1.01,.9-2.07,1.75-3.03,2.7-21.26,21.05-42.52,42.1-63.74,63.18-.56,.56-1.01,1.53-1,2.31,.06,12.81,.19,25.62,.33,38.44,0,.65,.15,1.3,.27,2.32,.91-.7,1.53-1.13,2.09-1.61,12.34-10.71,24.58-21.55,37.06-32.09,6.31-5.33,11.16-11.3,12.17-19.77,.02-.2,.13-.39,.19-.59,4.82-16.02,9.65-32.04,14.44-48.07,.65-2.16,1.13-4.37,1.68-6.55Zm-161.17,220.14c-.14,1.04-.23,1.44-.24,1.83-.05,15.57-.11,31.15-.11,46.72,0,.67,.35,1.5,.82,1.99,10.43,11.18,20.9,22.33,31.39,33.47,.52,.55,1.23,.92,2.14,1.58,.1-.95,.21-1.48,.21-2,.01-15.58,.03-31.15-.01-46.73,0-.73-.33-1.65-.83-2.18-9.9-10.54-19.85-21.05-29.81-31.54-.98-1.03-2.12-1.9-3.56-3.16Zm81.97,.47l-.82-.24c-.64,.6-1.3,1.17-1.91,1.8-10.18,10.57-20.37,21.13-30.49,31.75-.58,.6-.89,1.71-.89,2.58-.05,15.78-.04,31.57-.03,47.35,0,.51,.09,1.02,.15,1.76,.41-.33,.63-.48,.81-.66,10.76-11.26,21.53-22.5,32.23-33.81,.61-.65,.93-1.83,.93-2.77,.05-10.94,.02-21.87,.01-32.81,0-4.98,0-9.95,0-14.93Zm-81.94-134.53c-.12,1.69-.28,2.83-.27,3.97,.11,14.2,.22,28.39,.4,42.59,.01,.79,.46,1.71,1,2.32,1.78,2.03,3.68,3.95,5.55,5.9,8.05,8.4,16.09,16.81,24.17,25.18,.81,.84,1.81,1.51,3.16,2.61,.11-1.47,.23-2.27,.23-3.08,.08-13.85,.17-27.7,.17-41.56,0-.9-.53-1.99-1.16-2.68-4.26-4.64-8.64-9.17-12.93-13.79-5.36-5.79-10.65-11.65-16.01-17.44-1.21-1.3-2.59-2.44-4.31-4.04Zm-126.51,80.85c1.13-1.08,1.88-1.75,2.57-2.47,10.44-10.99,20.87-21.97,31.26-33.01,.54-.57,.91-1.56,.91-2.35,.02-12.11-.02-24.22-.1-36.33-.02-2.45-.23-4.9-.38-7.86-1.13,1.01-1.91,1.65-2.62,2.37-9.52,9.75-18.99,19.56-28.58,29.25-2.21,2.23-3.16,4.72-3.18,7.78-.08,12.18-.22,24.36-.29,36.54-.01,1.83,.24,3.67,.4,6.09Zm-13.53,66.37c.09-1.15,.17-1.69,.17-2.22-.02-14.61-.03-29.22-.1-43.82,0-.72-.43-1.6-.95-2.14-9.97-10.49-19.98-20.94-29.99-31.38-.89-.92-1.9-1.73-3.02-2.74-.12,.68-.22,1.02-.22,1.35-.1,14.19-.23,28.38-.19,42.57,0,1.36,.84,3,1.8,4.03,10.64,11.37,21.39,22.64,32.51,34.35Zm139.89-80.39c-.1,.71-.16,.96-.16,1.21,.02,14.82,.03,29.64,.1,44.46,0,.65,.46,1.43,.94,1.94,10.28,10.77,20.58,21.52,30.89,32.26,.54,.56,1.15,1.06,1.99,1.83,.23-1.31,.51-2.17,.52-3.04,.02-13.29,.03-26.58,0-39.86,0-2.21-.83-4.12-2.41-5.78-9.63-10.14-19.21-20.33-28.84-30.48-.82-.87-1.84-1.55-3.03-2.54Zm-140.56,13.85l.69-.51c.03-.33,.09-.66,.09-.99,0-14.82,0-29.63-.05-44.45,0-.71-.48-1.56-.99-2.11-2.91-3.15-5.9-6.24-8.87-9.34-7.13-7.45-14.27-14.9-21.42-22.33-.74-.76-1.66-1.35-2.76-2.23-.11,1.38-.25,2.34-.26,3.3-.07,13.85-.13,27.7-.12,41.55,0,.78,.48,1.72,1.03,2.3,9.69,10.27,19.43,20.5,29.15,30.75,1.23,1.3,2.34,2.71,3.51,4.07Zm188.32,1.83c.48-.3,.69-.38,.82-.52,10.85-11.46,21.69-22.91,32.5-34.4,.41-.44,.63-1.23,.63-1.85,.09-12.8,.14-25.61,.19-38.41,0-2.11,0-4.23,0-6.34l-.67-.23c-1.12,1.07-2.3,2.08-3.37,3.2-9.75,10.21-19.47,20.45-29.25,30.63-.99,1.04-1.37,2.07-1.35,3.48,.16,14.05,.25,28.1,.37,42.15,0,.67,.06,1.34,.11,2.29Zm.24,66.19l.68,.43c.37-.57,.66-1.23,1.12-1.71,7.27-7.7,14.59-15.35,21.85-23.06,3.22-3.43,6.36-6.94,9.44-10.49,.57-.66,.96-1.71,.96-2.58-.06-14.05-.2-28.1-.32-42.15,0-.59-.13-1.17-.22-2.03-.64,.51-1.09,.8-1.45,1.17-10.41,10.73-20.81,21.46-31.17,32.24-.5,.52-.79,1.45-.8,2.2-.16,13.5-.27,26.99-.35,40.49-.01,1.83,.18,3.67,.28,5.5Zm-140.02-84.13c-1.1,.97-1.97,1.63-2.72,2.4-10.32,10.63-20.63,21.26-30.91,31.93-.46,.48-.79,1.32-.78,1.99,.08,14.12,.22,28.24,.36,42.36,0,.43,.15,.85,.26,1.38,.34-.22,.54-.31,.68-.45,10.56-11.45,21.14-22.87,31.61-34.39,.88-.97,1.41-2.61,1.43-3.95,.22-12.53,.31-25.05,.4-37.58,0-1.08-.18-2.17-.32-3.69Zm-.03-126.29c-.68,.6-1.16,.97-1.57,1.4-10.86,11.45-21.71,22.9-32.54,34.38-.38,.4-.64,1.09-.65,1.64-.06,12.12-.09,24.23-.08,36.35,0,.75,.32,1.49,.58,2.65,1.07-.92,1.84-1.49,2.49-2.17,4.35-4.55,8.69-9.12,13.02-13.7,6.04-6.38,12.11-12.74,18.07-19.2,.7-.76,1.1-2.08,1.1-3.14-.04-12.12-.19-24.23-.31-36.35,0-.52-.06-1.04-.12-1.87Zm125.02,78.26l1.06-.65c.1-1.23,.28-2.45,.29-3.68,.11-11.42,.22-22.84,.22-34.25,0-1.01-.62-2.25-1.35-3.01-10.05-10.57-20.17-21.09-30.29-31.6-.78-.81-1.67-1.51-2.95-2.66-.19,2.33-.44,4.03-.45,5.72-.06,11-.1,22.01-.06,33.01,0,.9,.5,2,1.14,2.66,9.45,9.92,18.98,19.76,28.45,29.66,1.43,1.49,2.63,3.2,3.94,4.8ZM108.82,196.15c-.17,1.49-.34,2.28-.34,3.08-.03,11.98-.05,23.96-.03,35.94,0,.68,.27,1.54,.73,2.02,10.47,10.97,20.97,21.91,31.48,32.84,.43,.45,.97,.78,1.65,1.32,.13-.64,.22-.9,.22-1.16,.14-12.6,.29-25.2,.38-37.81,0-.6-.35-1.34-.78-1.79-9.89-10.47-19.8-20.92-29.73-31.35-.93-.98-2.05-1.77-3.59-3.08Zm221.23,76.62l.55,.25c.87-.77,1.8-1.48,2.59-2.31,10.14-10.61,20.27-21.23,30.36-31.89,.47-.5,.84-1.32,.84-1.99,.09-12.05,.11-24.09,.12-36.14,0-.76-.25-1.51-.44-2.57-.81,.73-1.34,1.15-1.81,1.64-10.24,10.61-20.49,21.21-30.68,31.87-.62,.65-.98,1.83-.99,2.76-.23,11.91-.38,23.82-.54,35.72-.01,.88,0,1.76,0,2.64Zm46.07-48.9c20.91-19.82,41.01-40.01,60.75-60.64-1.3-.1-2.38,.06-3.41,.38-18.36,5.87-36.71,11.78-55.07,17.62-1.54,.49-2.32,1.24-2.33,2.9-.1,12.87-.23,25.75-.34,38.62,0,.18,.12,.35,.4,1.12Zm-74.94-23.36c6.49,6.08,13.48,12.68,20.53,19.23,2.43,2.26,2.52,2.24,4.83,0,4.93-4.76,9.83-9.55,14.7-14.37,1.91-1.89,3.67-3.92,5.66-6.06-7.32-8-14.95-15.35-23.35-22.77-7.54,8.08-14.85,15.92-22.36,23.97Zm-173.89-3.36c.26,.39,.41,.71,.65,.94,7.01,6.78,14.04,13.53,21.04,20.33,1.12,1.09,1.89,.58,2.77-.28,5.93-5.81,11.87-11.61,17.84-17.39,1.13-1.09,2.36-2.08,3.61-3.18-7.37-7.37-14.38-14.35-21.35-21.36-1.15-1.15-2.01-1.22-3.24,0-6.61,6.51-13.29,12.93-19.94,19.4-.49,.47-.9,1.02-1.37,1.56Zm-18.74,192.73c-.01,.05-.07,.18-.07,.32-.14,16-.28,32-.37,48,0,.55,.31,1.21,.68,1.64,1.86,2.14,3.75,4.27,5.71,6.32,1.81,1.89,2.61,1.82,4.38-.17,2.62-2.95,5.17-5.97,7.84-8.87,4.69-5.09,9.44-10.12,14.37-15.39-10.89-10.66-21.7-21.24-32.54-31.85Z"/><path class="cls-1" d="M140.28,555.03c-5.09-4.92-9.73-9.45-14.44-13.92-3.32-3.15-6.74-6.18-10.07-9.3-.99-.93-1.74-1.02-2.76,.02-2.23,2.28-4.6,4.41-6.85,6.66-18.67,18.65-37.33,37.32-56.01,55.96-2.2,2.2-4.59,4.21-6.84,6.37-1.1,1.06-2.03,1.14-3.19,.09-4.82-4.37-9.74-8.64-14.52-13.06-8.23-7.62-16.37-15.35-24.59-22.98-1.06-.98-1.32-2-.59-3.1,.95-1.43,1.98-2.85,3.19-4.06,21.18-21.14,42.4-42.24,63.59-63.36,1.37-1.36,2.66-2.8,4.34-4.57-2.23-2.07-4.33-3.97-6.37-5.93-9.74-9.36-19.47-18.72-29.18-28.11-2.09-2.02-2.07-2.09,0-4.21,1.55-1.59,3.13-3.15,4.77-4.63,3.12-2.8,3.14-2.77,6.13,.08,4.77,4.53,9.54,9.07,14.32,13.59,8.61,8.13,17.24,16.25,25.84,24.39,.89,.85,1.67,1.82,2.77,3.03-24.14,24.3-48.17,48.5-72.61,73.1,8.68,8.21,17,16.09,25.64,24.27,25.13-23.64,48.84-48.39,73.38-72.58,2,1.66,4.04,3.19,5.9,4.92,12.52,11.66,25.04,23.32,37.47,35.08,3,2.84,3.56,2.32,0,5.87-1.49,1.49-2.1,2.94-2.09,5.05,.11,18.57,.09,37.13,.11,55.7,0,.82,0,1.64,0,2.75h-20.83c0-.64,0-1.38,0-2.12-.13-12.05-.26-24.11-.39-36.16,0-.55-.02-1.11-.05-1.66-.15-2.87-.24-3.16-3.09-3.23-5.45-.14-10.91-.04-16.6-.04-.28,14.6-.55,28.9-.83,43.35h-19.83c-.75-22.02-.25-44.08,.15-66.5,14.55-.24,29.04-.48,44.17-.73Z"/><path class="cls-1" d="M187.67,579.67c.92-.9,1.48-1.36,1.94-1.9,5.37-6.34,10.8-12.63,16.06-19.06,1.99-2.43,4.13-3.55,7.39-3.37,6.56,.36,13.14,.29,19.72,.35,1.94,.02,2.59,.87,2.58,2.79-.06,20.7-.08,41.41-.06,62.11,0,2-1.12,2.29-2.65,2.27-9.62-.13-19.24-.15-28.86-.46-7.48-.24-6.5,.47-6.76-6.91-.15-4.21-.03-8.43-.03-12.71,5.61-.27,11.08-.53,16.75-.8-.25-5.91-.48-11.21-.73-17.04-1.1,.68-1.86,.97-2.38,1.49-1.94,1.97-3.85,3.98-5.68,6.05-7.61,8.61-15.03,17.4-22.82,25.84-5.2,5.64-3.7,4.99-9.07,.63-2.9-2.35-5.57-4.99-8.38-7.44-1.05-.91-1.14-1.71-.26-2.79,2.88-3.55,5.72-7.13,8.54-10.72,.92-1.17,1.71-2.45,2.56-3.67l-.24-.66c-1.54,0-3.07,0-4.61,0-.83,0-1.66,.04-2.49,.02-2.59-.05-3.09-.43-3.12-3.01-.1-7.82-.15-15.65-.13-23.47,0-3.11,.29-6.22,.38-9.34,.04-1.34,.53-2.08,1.94-2.09,5.39-.07,10.79-.31,16.18-.19,2.96,.06,3.92,1.4,3.94,4.73,.03,5.19-.07,10.39-.08,15.58,0,1.07,.19,2.13,.35,3.78Z"/><path class="cls-1" d="M283.5,602.12v-23.04c-.95,0-1.68-.01-2.42,0-8.38,.14-16.76,.29-25.13,.43-2.39,.04-2.97-.44-3.22-2.91-.16-1.58-.22-3.18-.18-4.77,.21-8.93,.49-17.86,.66-26.8,.03-1.7,.42-2.41,2.33-2.4,6.85,.04,13.71-.13,20.56-.21,.41,0,.82,.07,1.66,.14v13.19h30.14c.05,.61,.11,1.01,.11,1.4,0,20.57,0,41.15-.03,61.72,0,3.31-.06,3.53-3.38,3.57-16.2,.16-32.39,.22-48.59,.24-2.83,0-2.88-.18-2.87-3,.01-4.85,.08-9.7,.14-14.55,0-.68,.1-1.36,.17-2.16,10.07-.29,20.02-.57,30.04-.86Z"/><path class="cls-1" d="M251.42,598.99c-4.17,0-7.96,.06-11.74-.07-.51-.02-1.4-.97-1.42-1.51-.12-4.77-.09-9.54-.09-14.31,0-1.44,.79-2.2,2.18-2.21,2.97-.02,5.94,.03,8.91,.07,1.43,.02,2.15,.81,2.15,2.22,.01,5.11,0,10.22,0,15.82Z"/></g></g></svg>