<?xml version="1.0" encoding="UTF-8"?><svg id="Layer_2" xmlns="http://www.w3.org/2000/svg" viewBox="0 0 143.51 143.51"><defs><style>.cls-1{fill:#fff;}</style></defs><g id="Layer_1-2"><path class="cls-1" d="M44.85,106.2l26.91-26.91,26.91,26.91,7.53-7.53-26.91-26.91,26.91-26.91-7.53-7.53-26.91,26.91-26.91-26.91-7.53,7.53,26.91,26.91-26.91,26.91,7.53,7.53Zm26.91,37.31c-10.17,0-19.61-1.82-28.34-5.47-8.73-3.65-16.32-8.7-22.78-15.16-6.46-6.46-11.51-14.05-15.16-22.78C1.82,91.37,0,81.92,0,71.75s1.82-19.43,5.47-28.16c3.65-8.73,8.7-16.32,15.16-22.78,6.46-6.46,14.05-11.54,22.78-15.25C52.14,1.85,61.59,0,71.75,0s19.43,1.85,28.16,5.56c8.73,3.71,16.32,8.79,22.78,15.25,6.46,6.46,11.54,14.05,15.25,22.78,3.71,8.73,5.56,18.12,5.56,28.16s-1.85,19.61-5.56,28.34c-3.71,8.73-8.79,16.32-15.25,22.78-6.46,6.46-14.05,11.51-22.78,15.16-8.73,3.65-18.12,5.47-28.16,5.47Zm0-10.76c16.74,0,31.09-5.98,43.05-17.94,11.96-11.96,17.94-26.31,17.94-43.05s-5.98-31.09-17.94-43.05c-11.96-11.96-26.31-17.94-43.05-17.94s-31.09,5.98-43.05,17.94c-11.96,11.96-17.94,26.31-17.94,43.05s5.98,31.09,17.94,43.05c11.96,11.96,26.31,17.94,43.05,17.94Z"/></g></svg>